<svg xmlns="http://www.w3.org/2000/svg" width="192" height="192" viewBox="0 0 512 512">
  <rect width="512" height="512" rx="80" fill="#1d7abf"/>
  <path d="M256 120c-20 40-60 100-60 140 0 33 27 60 60 60s60-27 60-60c0-40-40-100-60-140z" fill="white" opacity="0.9"/>
  <path d="M256 100c-8 16-20 36-30 56 18 10 38 16 60 16s42-6 60-16c-10-20-22-40-30-56z" fill="white" opacity="0.6"/>
  <path d="M160 280c0 53 43 96 96 96s96-43 96-96" fill="none" stroke="white" stroke-width="12" stroke-linecap="round" opacity="0.5"/>
</svg>
